<svg xmlns="http://www.w3.org/2000/svg" viewBox="0 0 109.4 127.5" enable-background="new 0 0 109.4 127.5"><path fill="#F54E29" d="M108.1 75.6l-50 50.5c-1.7 1.7-4.5 1.8-6.3 0l-50.5-50c-1.7-1.7-1.8-4.5 0-6.3l50-50.5c1.7-1.7 4.5-1.8 6.3 0l50.5 50c1.7 1.8 1.7 4.6 0 6.3z"/><path fill="#fff" stroke="#fff" stroke-width=".276" stroke-miterlimit="10" d="M74 65.8c-.9 0-1.8.2-2.6.4l-11.8-11.6c.3-.8.5-1.7.5-2.7 0-4.3-3.5-7.8-7.8-7.8-.9 0-1.8.2-2.6.4l-12.2-12.4-4.8 4.9 12.3 12c-.4.9-.6 1.9-.6 3 0 3.1 1.8 5.8 4.5 7.1v29.3c-2.7 1.2-4.5 4-4.5 7.1 0 4.3 3.5 7.8 7.8 7.8s7.8-3.5 7.8-7.8c0-3.1-1.8-5.8-4.5-7.1v-28.6l11.1 10.9c-.4.9-.5 1.9-.5 2.9 0 4.3 3.5 7.8 7.8 7.8s7.8-3.5 7.8-7.8-3.4-7.8-7.7-7.8z"/><path d="M81.4 4.2c.9 0 5.4.5 5.6 4.8 0 1.3-.5 2.4-1.5 3.3-1 .9-2.3 1.3-3.8 1.3-1.1 0-2.2-.3-3.3-.8-.3-.1-.6-.2-.8-.2-.3 0-.5.1-.7.4-.2.2-.3.5-.3.9 0 1 1 1.5 3.1 1.5h1c1.8 0 3.3.2 4.5.5 1.1.3 1.9.8 2.5 1.5.6.7.9 1.5.9 2.3 0 1.4-.7 2.5-2 3.3-1.3.8-3.1 1.2-5.3 1.2-2.2 0-4-.4-5.2-1.2-1.3-.8-1.9-1.8-1.9-3.2 0-1.6.9-2.7 2.6-3.3-1.6-.6-2.4-1.5-2.4-2.8 0-1.4.8-2.3 2.4-2.8-.5-.4-.8-1.2-.8-2.1 0-1.3.5-2.4 1.5-3.3 1.1-.8 2.3-1.3 3.9-1.3zm.1 13.2c-1.5 0-2.8.2-3.7.7-.9.5-1.3 1.1-1.3 1.9s.4 1.4 1.3 1.9 2 .7 3.5.7 2.8-.2 3.7-.7 1.3-1.1 1.3-1.9c0-.8-.4-1.4-1.3-1.9-.8-.5-2-.7-3.5-.7zm-.1-11.2c-.9 0-1.6.3-2.2.8-.6.5-.9 1.1-1 1.9v.1c0 .9.3 1.5.9 2.1.6.5 1.3.8 2.3.8 1 0 1.8-.3 2.4-.8.6-.5.9-1.2.9-2s-.3-1.5-.9-2.1c-.7-.6-1.4-.8-2.4-.8zM95 10.8v5.5c.1.9.4 1.3.8 1.3.1 0 .3 0 .7-.1.1 0 .2-.1.4-.1.7 0 1.1.3 1.1 1 0 .3-.1.5-.4.7-.2.2-.5.3-.9.3-.3 0-.8 0-1.4-.1-.6-.1-1.1-.1-1.4-.1-.5 0-1.1 0-1.7.1-.8.1-1.3.1-1.5.1-.8 0-1.2-.3-1.2-1 0-.6.3-1 1-1 .2 0 .4 0 .7.1s.5.1.7.1c.5 0 .8-.6.8-1.9v-7.4c-.1-1.2-.4-1.8-.9-1.8-.2 0-.4 0-.7.1-.3.1-.5.1-.6.1-.7 0-1.1-.3-1.1-.9 0-.7.4-1 1.3-1h.8c.6.1 1 .1 1.2.1.2 0 .4 0 .7-.1.3 0 .6-.1.7-.1.6 0 .8.4.8 1.1v2.4c.1 1 .1 1.8.1 2.6zm-1.5-7.6c-.4 0-.8-.2-1.1-.5-.4-.3-.5-.7-.5-1.1 0-.4.2-.8.5-1.1.3-.3.7-.5 1.1-.5s.8.2 1.1.5c.3.3.5.7.5 1.1 0 .4-.2.8-.5 1.1-.3.4-.6.5-1.1.5zM107.4 15.2v-1.9c0-.8.4-1.2 1-1.2.7 0 1 .4 1 1.3 0 2.1-.3 3.6-.8 4.4-.7 1.1-1.9 1.7-3.6 1.7-1.5 0-2.6-.5-3.3-1.5-.5-.7-.7-1.9-.7-3.7v-7c0-.4-.2-.6-.6-.6h-.9c-.3 0-.6-.1-.8-.3-.2-.2-.3-.4-.3-.7 0-.3.1-.5.3-.7.2-.2.4-.3.7-.3h1.1c.3 0 .5-.2.5-.6v-3c0-.7.4-1.1 1.1-1.1.7 0 1 .4 1 1.1v3.1c0 .3.2.4.5.4h3.2c.7 0 1.1.3 1.1 1s-.4 1.1-1.2 1.1h-3.2c-.3 0-.4.2-.4.6v7.1c0 2 .7 3 2 3 1.5.3 2.2-.5 2.3-2.2z"/></svg>