<?xml version="1.0" encoding="iso-8859-1"?>
<!-- Generator: Adobe Illustrator 16.0.0, SVG Export Plug-In . SVG Version: 6.00 Build 0)  -->
<!DOCTYPE svg PUBLIC "-//W3C//DTD SVG 1.1//EN" "http://www.w3.org/Graphics/SVG/1.1/DTD/svg11.dtd">
<svg xmlns="http://www.w3.org/2000/svg" xmlns:xlink="http://www.w3.org/1999/xlink" version="1.1" id="Capa_1" x="0px" y="0px" width="512px" height="512px" viewBox="0 0 498.545 498.545" style="enable-background:new 0 0 498.545 498.545;" xml:space="preserve">
<g>
	<g>
		<path d="M493.714,413.267l-78.318-60.844l-44.368-165.73h22.496l50.938,56.276c2.824,3.122,7.029,4.611,11.191,3.962    c4.159-0.648,7.714-3.347,9.455-7.18l18.777-41.319c1.907-4.199,1.35-9.106-1.453-12.769l-48.551-63.443    c-2.365-3.091-6.035-4.903-9.928-4.903h-83.946c-1.612,0-3.21,0.312-4.703,0.918l-8.841,3.59    c3.978-8.69,6.213-18.337,6.213-28.502c0-37.9-30.834-68.734-68.734-68.734c-37.901,0-68.735,30.834-68.735,68.734    c0,27.284,15.98,50.903,39.072,61.996h-30.937l-38.41-45.153c-2.669-3.137-6.707-4.76-10.812-4.333    c-4.098,0.425-7.723,2.842-9.691,6.461l-18.021,33.139c-1.97,3.622-2.026,7.982-0.151,11.655l33.353,65.342    c2.136,4.184,6.437,6.817,11.134,6.817h77.655l13.971,60.479l-55.039,15.117c-4.323,1.188-7.68,4.602-8.796,8.944l-30.277,117.87    c-1.168,4.547,0.311,9.367,3.828,12.477l30.189,26.688c2.309,2.041,5.261,3.135,8.279,3.135c0.929,0,1.865-0.104,2.789-0.314    c3.929-0.9,7.183-3.637,8.739-7.355l37.59-89.713l69.201-19.008l5.896,26.941c0.722,3.295,2.744,6.16,5.609,7.941l126.518,78.691    c3.245,2.018,7.236,2.441,10.833,1.146c3.597-1.293,6.403-4.16,7.619-7.785l12.545-37.387    C499.585,422.079,497.908,416.524,493.714,413.267z M220.208,93.325c0-24.115,19.619-43.734,43.735-43.734    c24.115,0,43.734,19.619,43.734,43.734c0,24.115-19.619,43.734-43.734,43.734C239.828,137.059,220.208,117.44,220.208,93.325z     M466.679,441.562l-108.613-67.556l-7.586-34.657c-0.733-3.351-2.811-6.252-5.746-8.025c-2.935-1.775-6.47-2.264-9.775-1.356    l-87.771,24.108c-3.704,1.018-6.734,3.681-8.219,7.223l-33.201,79.24l-11.391-10.068l26.57-103.439l59.616-16.375    c6.464-1.775,10.377-8.336,8.868-14.867l-18.91-81.854c-1.311-5.67-6.359-9.687-12.18-9.687h-79.942L151.52,151.59l6.172-11.351    l30.354,35.681c2.375,2.792,5.855,4.4,9.521,4.4h48.865c1.612,0,3.209-0.312,4.702-0.918l91.316-37.084h75.331l40.247,52.591    l-7.804,17.172l-41.888-46.277c-2.37-2.618-5.736-4.111-9.269-4.111H354.74c-3.886,0-7.551,1.807-9.916,4.889    c-2.365,3.083-3.164,7.09-2.159,10.843l49.668,185.521c0.704,2.635,2.252,4.967,4.404,6.64l74.635,57.981L466.679,441.562z" fill="#454f87"/>
		<path d="M158.841,331.815l-0.085-0.057c-0.504-0.33-1.03-0.624-1.576-0.878l-0.287-0.134l-44.419-24.486l-22.359-89.508    c-0.853-3.41-3.1-6.304-6.193-7.972c-2.923-1.577-6.34-1.905-9.508-0.959c7.074-4.395,11.786-12.232,11.786-21.173    c0-13.76-11.154-24.916-24.914-24.916c-13.76,0-24.914,11.156-24.914,24.916s11.154,24.914,24.914,24.914    c0.95,0,1.886-0.058,2.809-0.162l-11.553,4.042h-19.04l-11.48-13.495c-3.644-4.282-9.697-5.604-14.795-3.234    c-5.097,2.373-7.983,7.855-7.055,13.4l0.086,0.51c0.313,1.872,1.05,3.648,2.152,5.193l13.955,19.56    c1.894,2.654,4.75,4.464,7.959,5.042l30.071,5.419l7.212,31.222l-14.454,5.391c-3.217,1.201-5.799,3.671-7.14,6.832l-19.67,46.379    c-3.203,6.015-0.998,13.49,4.962,16.802c1.922,1.067,4.005,1.576,6.061,1.576c4.329,0,8.534-2.252,10.845-6.267l0.2-0.349    c0.155-0.269,0.3-0.544,0.434-0.823l16.38-30.557l23.419-7.962l2.003,9.151c0.834,3.809,3.396,7.01,6.931,8.656l53.988,25.16    l0.847,0.467c2.118,1.168,4.431,1.658,6.686,1.539c6.61-0.33,11.869-5.793,11.869-12.484    C164.966,337.995,162.509,333.994,158.841,331.815z" fill="#454f87"/>
	</g>
</g>
<g>
</g>
<g>
</g>
<g>
</g>
<g>
</g>
<g>
</g>
<g>
</g>
<g>
</g>
<g>
</g>
<g>
</g>
<g>
</g>
<g>
</g>
<g>
</g>
<g>
</g>
<g>
</g>
<g>
</g>
</svg>
